<svg width="252" height="183" viewBox="0 0 252 183" fill="none" xmlns="http://www.w3.org/2000/svg">
<g opacity="0.5">
<path d="M12.1856 6.08988C12.1856 9.45322 9.45779 12.1798 6.09282 12.1798C2.72785 12.1798 0 9.45322 0 6.08988C0 2.72653 2.72785 0 6.09282 0C9.45779 0 12.1856 2.72653 12.1856 6.08988Z" fill="#4B56D2"/>
<path d="M12.1856 30.4494C12.1856 33.8127 9.45779 36.5393 6.09282 36.5393C2.72785 36.5393 0 33.8127 0 30.4494C0 27.086 2.72785 24.3595 6.09282 24.3595C9.45779 24.3595 12.1856 27.086 12.1856 30.4494Z" fill="#4B56D2"/>
<path d="M12.1856 54.8089C12.1856 58.1722 9.45779 60.8988 6.09282 60.8988C2.72785 60.8988 0 58.1722 0 54.8089C0 51.4456 2.72785 48.719 6.09282 48.719C9.45779 48.719 12.1856 51.4456 12.1856 54.8089Z" fill="#4B56D2"/>
<path d="M12.1856 79.1684C12.1856 82.5318 9.45779 85.2583 6.09282 85.2583C2.72785 85.2583 0 82.5318 0 79.1684C0 75.8051 2.72785 73.0785 6.09282 73.0785C9.45779 73.0785 12.1856 75.8051 12.1856 79.1684Z" fill="#4B56D2"/>
<path d="M12.1856 103.528C12.1856 106.891 9.45779 109.618 6.09282 109.618C2.72785 109.618 0 106.891 0 103.528C0 100.165 2.72785 97.438 6.09282 97.438C9.45779 97.438 12.1856 100.165 12.1856 103.528Z" fill="#4B56D2"/>
<path d="M12.1856 127.887C12.1856 131.251 9.45779 133.977 6.09282 133.977C2.72785 133.977 0 131.251 0 127.887C0 124.524 2.72785 121.798 6.09282 121.798C9.45779 121.798 12.1856 124.524 12.1856 127.887Z" fill="#4B56D2"/>
<path d="M12.1856 152.247C12.1856 155.61 9.45779 158.337 6.09282 158.337C2.72785 158.337 0 155.61 0 152.247C0 148.884 2.72785 146.157 6.09282 146.157C9.45779 146.157 12.1856 148.884 12.1856 152.247Z" fill="#4B56D2"/>
<path d="M12.1856 176.606C12.1856 179.97 9.45779 182.696 6.09282 182.696C2.72785 182.696 0 179.97 0 176.606C0 173.243 2.72785 170.517 6.09282 170.517C9.45779 170.517 12.1856 173.243 12.1856 176.606Z" fill="#4B56D2"/>
<path d="M46.3054 6.08988C46.3054 9.45322 43.5776 12.1798 40.2126 12.1798C36.8477 12.1798 34.1198 9.45322 34.1198 6.08988C34.1198 2.72653 36.8477 0 40.2126 0C43.5776 0 46.3054 2.72653 46.3054 6.08988Z" fill="#4B56D2"/>
<path d="M46.3054 30.4494C46.3054 33.8127 43.5776 36.5393 40.2126 36.5393C36.8477 36.5393 34.1198 33.8127 34.1198 30.4494C34.1198 27.086 36.8477 24.3595 40.2126 24.3595C43.5776 24.3595 46.3054 27.086 46.3054 30.4494Z" fill="#4B56D2"/>
<path d="M46.3054 54.8089C46.3054 58.1722 43.5776 60.8988 40.2126 60.8988C36.8477 60.8988 34.1198 58.1722 34.1198 54.8089C34.1198 51.4456 36.8477 48.719 40.2126 48.719C43.5776 48.719 46.3054 51.4456 46.3054 54.8089Z" fill="#4B56D2"/>
<path d="M46.3054 79.1684C46.3054 82.5318 43.5776 85.2583 40.2126 85.2583C36.8477 85.2583 34.1198 82.5318 34.1198 79.1684C34.1198 75.8051 36.8477 73.0785 40.2126 73.0785C43.5776 73.0785 46.3054 75.8051 46.3054 79.1684Z" fill="#4B56D2"/>
<path d="M46.3054 103.528C46.3054 106.891 43.5776 109.618 40.2126 109.618C36.8477 109.618 34.1198 106.891 34.1198 103.528C34.1198 100.165 36.8477 97.438 40.2126 97.438C43.5776 97.438 46.3054 100.165 46.3054 103.528Z" fill="#4B56D2"/>
<path d="M46.3054 127.887C46.3054 131.251 43.5776 133.977 40.2126 133.977C36.8477 133.977 34.1198 131.251 34.1198 127.887C34.1198 124.524 36.8477 121.798 40.2126 121.798C43.5776 121.798 46.3054 124.524 46.3054 127.887Z" fill="#4B56D2"/>
<path d="M46.3054 152.247C46.3054 155.61 43.5776 158.337 40.2126 158.337C36.8477 158.337 34.1198 155.61 34.1198 152.247C34.1198 148.884 36.8477 146.157 40.2126 146.157C43.5776 146.157 46.3054 148.884 46.3054 152.247Z" fill="#4B56D2"/>
<path d="M46.3054 176.606C46.3054 179.97 43.5776 182.696 40.2126 182.696C36.8477 182.696 34.1198 179.97 34.1198 176.606C34.1198 173.243 36.8477 170.517 40.2126 170.517C43.5776 170.517 46.3054 173.243 46.3054 176.606Z" fill="#4B56D2"/>
<path d="M80.4252 6.08988C80.4252 9.45322 77.6974 12.1798 74.3324 12.1798C70.9675 12.1798 68.2396 9.45322 68.2396 6.08988C68.2396 2.72653 70.9675 0 74.3324 0C77.6974 0 80.4252 2.72653 80.4252 6.08988Z" fill="#4B56D2"/>
<path d="M80.4252 30.4494C80.4252 33.8127 77.6974 36.5393 74.3324 36.5393C70.9675 36.5393 68.2396 33.8127 68.2396 30.4494C68.2396 27.086 70.9675 24.3595 74.3324 24.3595C77.6974 24.3595 80.4252 27.086 80.4252 30.4494Z" fill="#4B56D2"/>
<path d="M80.4252 54.8089C80.4252 58.1722 77.6974 60.8988 74.3324 60.8988C70.9675 60.8988 68.2396 58.1722 68.2396 54.8089C68.2396 51.4456 70.9675 48.719 74.3324 48.719C77.6974 48.719 80.4252 51.4456 80.4252 54.8089Z" fill="#4B56D2"/>
<path d="M80.4252 79.1684C80.4252 82.5318 77.6974 85.2583 74.3324 85.2583C70.9675 85.2583 68.2396 82.5318 68.2396 79.1684C68.2396 75.8051 70.9675 73.0785 74.3324 73.0785C77.6974 73.0785 80.4252 75.8051 80.4252 79.1684Z" fill="#4B56D2"/>
<path d="M80.4252 103.528C80.4252 106.891 77.6974 109.618 74.3324 109.618C70.9675 109.618 68.2396 106.891 68.2396 103.528C68.2396 100.165 70.9675 97.438 74.3324 97.438C77.6974 97.438 80.4252 100.165 80.4252 103.528Z" fill="#4B56D2"/>
<path d="M80.4252 127.887C80.4252 131.251 77.6974 133.977 74.3324 133.977C70.9675 133.977 68.2396 131.251 68.2396 127.887C68.2396 124.524 70.9675 121.798 74.3324 121.798C77.6974 121.798 80.4252 124.524 80.4252 127.887Z" fill="#4B56D2"/>
<path d="M80.4252 152.247C80.4252 155.61 77.6974 158.337 74.3324 158.337C70.9675 158.337 68.2396 155.61 68.2396 152.247C68.2396 148.884 70.9675 146.157 74.3324 146.157C77.6974 146.157 80.4252 148.884 80.4252 152.247Z" fill="#4B56D2"/>
<path d="M80.4252 176.606C80.4252 179.97 77.6974 182.696 74.3324 182.696C70.9675 182.696 68.2396 179.97 68.2396 176.606C68.2396 173.243 70.9675 170.517 74.3324 170.517C77.6974 170.517 80.4252 173.243 80.4252 176.606Z" fill="#4B56D2"/>
<path d="M114.545 6.08988C114.545 9.45322 111.817 12.1798 108.452 12.1798C105.087 12.1798 102.359 9.45322 102.359 6.08988C102.359 2.72653 105.087 0 108.452 0C111.817 0 114.545 2.72653 114.545 6.08988Z" fill="#4B56D2"/>
<path d="M114.545 30.4494C114.545 33.8127 111.817 36.5393 108.452 36.5393C105.087 36.5393 102.359 33.8127 102.359 30.4494C102.359 27.086 105.087 24.3595 108.452 24.3595C111.817 24.3595 114.545 27.086 114.545 30.4494Z" fill="#4B56D2"/>
<path d="M114.545 54.8089C114.545 58.1722 111.817 60.8988 108.452 60.8988C105.087 60.8988 102.359 58.1722 102.359 54.8089C102.359 51.4456 105.087 48.719 108.452 48.719C111.817 48.719 114.545 51.4456 114.545 54.8089Z" fill="#4B56D2"/>
<path d="M114.545 79.1684C114.545 82.5318 111.817 85.2583 108.452 85.2583C105.087 85.2583 102.359 82.5318 102.359 79.1684C102.359 75.8051 105.087 73.0785 108.452 73.0785C111.817 73.0785 114.545 75.8051 114.545 79.1684Z" fill="#4B56D2"/>
<path d="M114.545 103.528C114.545 106.891 111.817 109.618 108.452 109.618C105.087 109.618 102.359 106.891 102.359 103.528C102.359 100.165 105.087 97.438 108.452 97.438C111.817 97.438 114.545 100.165 114.545 103.528Z" fill="#4B56D2"/>
<path d="M114.545 127.887C114.545 131.251 111.817 133.977 108.452 133.977C105.087 133.977 102.359 131.251 102.359 127.887C102.359 124.524 105.087 121.798 108.452 121.798C111.817 121.798 114.545 124.524 114.545 127.887Z" fill="#4B56D2"/>
<path d="M114.545 152.247C114.545 155.61 111.817 158.337 108.452 158.337C105.087 158.337 102.359 155.61 102.359 152.247C102.359 148.884 105.087 146.157 108.452 146.157C111.817 146.157 114.545 148.884 114.545 152.247Z" fill="#4B56D2"/>
<path d="M114.545 176.606C114.545 179.97 111.817 182.696 108.452 182.696C105.087 182.696 102.359 179.97 102.359 176.606C102.359 173.243 105.087 170.517 108.452 170.517C111.817 170.517 114.545 173.243 114.545 176.606Z" fill="#4B56D2"/>
<path d="M148.665 6.08988C148.665 9.45322 145.937 12.1798 142.572 12.1798C139.207 12.1798 136.479 9.45322 136.479 6.08988C136.479 2.72653 139.207 0 142.572 0C145.937 0 148.665 2.72653 148.665 6.08988Z" fill="#4B56D2"/>
<path d="M148.665 30.4494C148.665 33.8127 145.937 36.5393 142.572 36.5393C139.207 36.5393 136.479 33.8127 136.479 30.4494C136.479 27.086 139.207 24.3595 142.572 24.3595C145.937 24.3595 148.665 27.086 148.665 30.4494Z" fill="#4B56D2"/>
<path d="M148.665 54.8089C148.665 58.1722 145.937 60.8988 142.572 60.8988C139.207 60.8988 136.479 58.1722 136.479 54.8089C136.479 51.4456 139.207 48.719 142.572 48.719C145.937 48.719 148.665 51.4456 148.665 54.8089Z" fill="#4B56D2"/>
<path d="M148.665 79.1684C148.665 82.5318 145.937 85.2583 142.572 85.2583C139.207 85.2583 136.479 82.5318 136.479 79.1684C136.479 75.8051 139.207 73.0785 142.572 73.0785C145.937 73.0785 148.665 75.8051 148.665 79.1684Z" fill="#4B56D2"/>
<path d="M148.665 103.528C148.665 106.891 145.937 109.618 142.572 109.618C139.207 109.618 136.479 106.891 136.479 103.528C136.479 100.165 139.207 97.438 142.572 97.438C145.937 97.438 148.665 100.165 148.665 103.528Z" fill="#4B56D2"/>
<path d="M148.665 127.887C148.665 131.251 145.937 133.977 142.572 133.977C139.207 133.977 136.479 131.251 136.479 127.887C136.479 124.524 139.207 121.798 142.572 121.798C145.937 121.798 148.665 124.524 148.665 127.887Z" fill="#4B56D2"/>
<path d="M148.665 152.247C148.665 155.61 145.937 158.337 142.572 158.337C139.207 158.337 136.479 155.61 136.479 152.247C136.479 148.884 139.207 146.157 142.572 146.157C145.937 146.157 148.665 148.884 148.665 152.247Z" fill="#4B56D2"/>
<path d="M148.665 176.606C148.665 179.97 145.937 182.696 142.572 182.696C139.207 182.696 136.479 179.97 136.479 176.606C136.479 173.243 139.207 170.517 142.572 170.517C145.937 170.517 148.665 173.243 148.665 176.606Z" fill="#4B56D2"/>
<path d="M182.785 6.08988C182.785 9.45322 180.057 12.1798 176.692 12.1798C173.327 12.1798 170.599 9.45322 170.599 6.08988C170.599 2.72653 173.327 0 176.692 0C180.057 0 182.785 2.72653 182.785 6.08988Z" fill="#4B56D2"/>
<path d="M182.785 30.4494C182.785 33.8127 180.057 36.5393 176.692 36.5393C173.327 36.5393 170.599 33.8127 170.599 30.4494C170.599 27.086 173.327 24.3595 176.692 24.3595C180.057 24.3595 182.785 27.086 182.785 30.4494Z" fill="#4B56D2"/>
<path d="M182.785 54.8089C182.785 58.1722 180.057 60.8988 176.692 60.8988C173.327 60.8988 170.599 58.1722 170.599 54.8089C170.599 51.4456 173.327 48.719 176.692 48.719C180.057 48.719 182.785 51.4456 182.785 54.8089Z" fill="#4B56D2"/>
<path d="M182.785 79.1684C182.785 82.5318 180.057 85.2583 176.692 85.2583C173.327 85.2583 170.599 82.5318 170.599 79.1684C170.599 75.8051 173.327 73.0785 176.692 73.0785C180.057 73.0785 182.785 75.8051 182.785 79.1684Z" fill="#4B56D2"/>
<path d="M182.785 103.528C182.785 106.891 180.057 109.618 176.692 109.618C173.327 109.618 170.599 106.891 170.599 103.528C170.599 100.165 173.327 97.438 176.692 97.438C180.057 97.438 182.785 100.165 182.785 103.528Z" fill="#4B56D2"/>
<path d="M182.785 127.887C182.785 131.251 180.057 133.977 176.692 133.977C173.327 133.977 170.599 131.251 170.599 127.887C170.599 124.524 173.327 121.798 176.692 121.798C180.057 121.798 182.785 124.524 182.785 127.887Z" fill="#4B56D2"/>
<path d="M182.785 152.247C182.785 155.61 180.057 158.337 176.692 158.337C173.327 158.337 170.599 155.61 170.599 152.247C170.599 148.884 173.327 146.157 176.692 146.157C180.057 146.157 182.785 148.884 182.785 152.247Z" fill="#4B56D2"/>
<path d="M182.785 176.606C182.785 179.97 180.057 182.696 176.692 182.696C173.327 182.696 170.599 179.97 170.599 176.606C170.599 173.243 173.327 170.517 176.692 170.517C180.057 170.517 182.785 173.243 182.785 176.606Z" fill="#4B56D2"/>
<path d="M216.904 6.08988C216.904 9.45322 214.177 12.1798 210.812 12.1798C207.447 12.1798 204.719 9.45322 204.719 6.08988C204.719 2.72653 207.447 0 210.812 0C214.177 0 216.904 2.72653 216.904 6.08988Z" fill="#4B56D2"/>
<path d="M216.904 30.4494C216.904 33.8127 214.177 36.5393 210.812 36.5393C207.447 36.5393 204.719 33.8127 204.719 30.4494C204.719 27.086 207.447 24.3595 210.812 24.3595C214.177 24.3595 216.904 27.086 216.904 30.4494Z" fill="#4B56D2"/>
<path d="M216.904 54.8089C216.904 58.1722 214.177 60.8988 210.812 60.8988C207.447 60.8988 204.719 58.1722 204.719 54.8089C204.719 51.4456 207.447 48.719 210.812 48.719C214.177 48.719 216.904 51.4456 216.904 54.8089Z" fill="#4B56D2"/>
<path d="M216.904 79.1684C216.904 82.5318 214.177 85.2583 210.812 85.2583C207.447 85.2583 204.719 82.5318 204.719 79.1684C204.719 75.8051 207.447 73.0785 210.812 73.0785C214.177 73.0785 216.904 75.8051 216.904 79.1684Z" fill="#4B56D2"/>
<path d="M216.904 103.528C216.904 106.891 214.177 109.618 210.812 109.618C207.447 109.618 204.719 106.891 204.719 103.528C204.719 100.165 207.447 97.438 210.812 97.438C214.177 97.438 216.904 100.165 216.904 103.528Z" fill="#4B56D2"/>
<path d="M216.904 127.887C216.904 131.251 214.177 133.977 210.812 133.977C207.447 133.977 204.719 131.251 204.719 127.887C204.719 124.524 207.447 121.798 210.812 121.798C214.177 121.798 216.904 124.524 216.904 127.887Z" fill="#4B56D2"/>
<path d="M216.904 152.247C216.904 155.61 214.177 158.337 210.812 158.337C207.447 158.337 204.719 155.61 204.719 152.247C204.719 148.884 207.447 146.157 210.812 146.157C214.177 146.157 216.904 148.884 216.904 152.247Z" fill="#4B56D2"/>
<path d="M216.904 176.606C216.904 179.97 214.177 182.696 210.812 182.696C207.447 182.696 204.719 179.97 204.719 176.606C204.719 173.243 207.447 170.517 210.812 170.517C214.177 170.517 216.904 173.243 216.904 176.606Z" fill="#4B56D2"/>
<path d="M251.024 6.08988C251.024 9.45322 248.296 12.1798 244.931 12.1798C241.566 12.1798 238.839 9.45322 238.839 6.08988C238.839 2.72653 241.566 0 244.931 0C248.296 0 251.024 2.72653 251.024 6.08988Z" fill="#4B56D2"/>
<path d="M251.024 30.4494C251.024 33.8127 248.296 36.5393 244.931 36.5393C241.566 36.5393 238.839 33.8127 238.839 30.4494C238.839 27.086 241.566 24.3595 244.931 24.3595C248.296 24.3595 251.024 27.086 251.024 30.4494Z" fill="#4B56D2"/>
<path d="M251.024 54.8089C251.024 58.1722 248.296 60.8988 244.931 60.8988C241.566 60.8988 238.839 58.1722 238.839 54.8089C238.839 51.4456 241.566 48.719 244.931 48.719C248.296 48.719 251.024 51.4456 251.024 54.8089Z" fill="#4B56D2"/>
<path d="M251.024 79.1684C251.024 82.5318 248.296 85.2583 244.931 85.2583C241.566 85.2583 238.839 82.5318 238.839 79.1684C238.839 75.8051 241.566 73.0785 244.931 73.0785C248.296 73.0785 251.024 75.8051 251.024 79.1684Z" fill="#4B56D2"/>
<path d="M251.024 103.528C251.024 106.891 248.296 109.618 244.931 109.618C241.566 109.618 238.839 106.891 238.839 103.528C238.839 100.165 241.566 97.438 244.931 97.438C248.296 97.438 251.024 100.165 251.024 103.528Z" fill="#4B56D2"/>
<path d="M251.024 127.887C251.024 131.251 248.296 133.977 244.931 133.977C241.566 133.977 238.839 131.251 238.839 127.887C238.839 124.524 241.566 121.798 244.931 121.798C248.296 121.798 251.024 124.524 251.024 127.887Z" fill="#4B56D2"/>
<path d="M251.024 152.247C251.024 155.61 248.296 158.337 244.931 158.337C241.566 158.337 238.839 155.61 238.839 152.247C238.839 148.884 241.566 146.157 244.931 146.157C248.296 146.157 251.024 148.884 251.024 152.247Z" fill="#4B56D2"/>
<path d="M251.024 176.606C251.024 179.97 248.296 182.696 244.931 182.696C241.566 182.696 238.839 179.97 238.839 176.606C238.839 173.243 241.566 170.517 244.931 170.517C248.296 170.517 251.024 173.243 251.024 176.606Z" fill="#4B56D2"/>
</g>
</svg>
